<svg width="183" height="130" viewBox="0 0 183 130" fill="none" xmlns="http://www.w3.org/2000/svg">
<path d="M14.8831 117.836V91.3514H10.541V117.836H14.8831Z" fill="white"/>
<path d="M17.54 109.008C17.54 114.419 21.1704 118.263 26.687 118.263C32.2035 118.263 35.8339 114.419 35.8339 109.008C35.8339 103.597 32.2035 99.7525 26.687 99.7525C21.1704 99.7525 17.54 103.597 17.54 109.008ZM21.9177 109.008C21.9177 105.84 23.8041 103.633 26.687 103.633C29.5698 103.633 31.4562 105.84 31.4562 109.008C31.4562 112.14 29.5698 114.383 26.687 114.383C23.8041 114.383 21.9177 112.14 21.9177 109.008Z" fill="white"/>
<path d="M37.2939 108.652C37.2939 113.778 40.6038 117.48 45.5511 117.48C48.1136 117.48 50.3203 116.448 51.4235 114.739V117.729C51.4235 120.613 49.6085 122.535 46.5831 122.535C43.8783 122.535 42.0275 121.218 41.7784 118.904H37.4008C37.9701 123.496 41.4936 126.486 46.334 126.486C52.0287 126.486 55.6589 122.749 55.6589 116.946V100.251H51.8151L51.566 102.636C50.4983 100.785 48.2916 99.6811 45.6933 99.6811C40.675 99.6811 37.2939 103.49 37.2939 108.652ZM41.7073 108.545C41.7073 105.626 43.558 103.49 46.2986 103.49C49.2882 103.49 51.2812 105.662 51.2812 108.545C51.2812 111.464 49.2882 113.707 46.2986 113.707C43.5935 113.707 41.7073 111.5 41.7073 108.545Z" fill="white"/>
<path d="M57.8086 109.008C57.8086 114.419 61.4389 118.263 66.9555 118.263C72.4721 118.263 76.1024 114.419 76.1024 109.008C76.1024 103.597 72.4721 99.7525 66.9555 99.7525C61.4389 99.7525 57.8086 103.597 57.8086 109.008ZM62.1863 109.008C62.1863 105.84 64.0727 103.633 66.9555 103.633C69.8383 103.633 71.7247 105.84 71.7247 109.008C71.7247 112.14 69.8383 114.383 66.9555 114.383C64.0727 114.383 62.1863 112.14 62.1863 109.008Z" fill="white"/>
<path d="M80.8018 96.6554C82.2255 96.6554 83.4001 95.5162 83.4001 94.0567C83.4001 92.6328 82.2255 91.4937 80.8018 91.4937C79.3427 91.4937 78.2393 92.6328 78.2393 94.0567C78.2393 95.5162 79.3427 96.6554 80.8018 96.6554ZM78.6308 117.836H82.973V100.251H78.6308V117.836Z" fill="white"/>
<path d="M86.7773 125.988H91.0125V115.416C92.116 117.231 94.5006 118.299 97.1343 118.299C102.331 118.299 105.427 114.312 105.356 108.83C105.249 103.312 102.082 99.717 97.0986 99.717C94.4294 99.717 92.0091 100.892 90.9414 102.921L90.6923 100.251H86.7773V125.988ZM91.1905 109.044C91.1905 105.875 93.1126 103.668 96.1377 103.668C99.163 103.668 100.978 105.911 100.978 109.044C100.978 112.176 99.163 114.383 96.1377 114.383C93.1126 114.383 91.1905 112.212 91.1905 109.044Z" fill="white"/>
<path d="M106.458 112.568C106.6 116.056 109.305 118.299 113.505 118.299C117.634 118.299 120.445 116.092 120.445 112.675C120.445 110.147 118.879 108.438 115.996 107.727L112.9 106.979C111.583 106.623 110.693 106.16 110.693 105.021C110.693 103.811 111.654 102.956 113.22 102.956C114.858 102.956 115.925 103.882 115.925 105.413H119.876C119.733 101.924 117.135 99.717 113.327 99.717C109.554 99.717 106.743 101.924 106.743 105.27C106.743 107.549 108.06 109.435 111.441 110.325L114.502 111.108C115.641 111.429 116.352 111.963 116.352 112.959C116.352 114.348 115.036 114.988 113.434 114.988C111.512 114.988 110.409 114.099 110.409 112.568H106.458Z" fill="white"/>
<path d="M129.452 118.299C131.836 118.299 134.114 117.195 135.146 115.558L135.431 117.836H139.488V100.251H135.146V109.471C135.146 112.639 133.936 114.419 131.089 114.419C128.882 114.419 127.352 113.351 127.352 109.72V100.251H123.01V111.251C123.01 115.451 125.288 118.299 129.452 118.299Z" fill="white"/>
<path d="M147.662 117.836V107.727C147.662 104.879 149.335 103.526 151.399 103.526C153.464 103.526 154.816 104.843 154.816 107.335V117.836H159.052V107.762C159.052 104.879 160.689 103.526 162.753 103.526C164.853 103.526 166.205 104.843 166.205 107.335V117.836H170.405V106.338C170.405 102.28 168.163 99.717 163.892 99.717C161.223 99.717 159.123 100.999 158.269 103.063C157.308 100.999 155.386 99.717 152.467 99.717C150.403 99.717 148.552 100.678 147.52 102.244L147.306 100.251H143.32V117.836H147.662Z" fill="white"/>
<path d="M79.9097 67.3756C74.1894 77.6699 62.5423 82.5675 50.7653 82.5675H3.51367C52.7029 76.4189 86.9596 51.8243 91.3515 17.5675C95.7434 51.8243 130 76.4189 179.189 82.5675H131.938C120.161 82.5675 108.514 77.6699 102.793 67.3756C96.6017 56.2337 92.6571 43.6262 91.3515 29.8648C90.0459 43.6262 86.1012 56.2337 79.9097 67.3756Z" fill="white"/>
<path d="M52.8873 63.7374C50.1279 65.2909 47.2254 66.7501 44.1862 68.1093C42.4599 62.1458 41.8246 55.8891 42.3313 49.6565C43.0015 41.4112 45.6494 33.462 50.0406 26.5135C54.432 19.565 60.4308 13.8313 67.5059 9.82042C74.5811 5.80957 82.5143 3.6453 90.6025 3.51936C98.6908 3.3934 106.685 5.30965 113.876 9.09836C121.067 12.8871 127.234 18.4312 131.83 25.2399C136.426 32.0485 139.309 39.9114 140.225 48.132C140.973 54.856 140.386 61.6497 138.516 68.1093C135.477 66.7501 132.575 65.2908 129.815 63.7373C130.979 59.0147 131.305 54.1018 130.763 49.2342C130.024 42.6051 127.699 36.2644 123.993 30.774C120.287 25.2836 115.314 20.8127 109.515 17.7575C103.716 14.7023 97.2698 13.157 90.7475 13.2586C84.225 13.3601 77.8278 15.1054 72.1225 18.3397C66.4171 21.574 61.5795 26.1976 58.0384 31.801C54.4973 37.4044 52.362 43.8144 51.8216 50.4636C51.4583 54.9327 51.823 59.4174 52.8873 63.7374Z" fill="white"/>
</svg>
